<?xml version="1.0" encoding="UTF-8" standalone="no"?>
<svg
   version="1.1"
   width="3162.208309618669"
   height="1027.5128607577144"
   viewBox="0 0 3162.208309618669 1027.5128607577144"
   id="svg8"
   sodipodi:docname="logo.svg"
   inkscape:version="1.4.1 (93de688d07, 2025-03-30)"
   xmlns:inkscape="http://www.inkscape.org/namespaces/inkscape"
   xmlns:sodipodi="http://sodipodi.sourceforge.net/DTD/sodipodi-0.dtd"
   xmlns="http://www.w3.org/2000/svg"
   xmlns:svg="http://www.w3.org/2000/svg">
  <defs
     id="defs8" />
  <sodipodi:namedview
     id="namedview8"
     pagecolor="#ffffff"
     bordercolor="#000000"
     borderopacity="0.25"
     inkscape:showpageshadow="2"
     inkscape:pageopacity="0.0"
     inkscape:pagecheckerboard="0"
     inkscape:deskcolor="#d1d1d1"
     inkscape:zoom="0.27828654"
     inkscape:cx="1582.9008"
     inkscape:cy="512.06213"
     inkscape:window-width="1900"
     inkscape:window-height="1030"
     inkscape:window-x="0"
     inkscape:window-y="0"
     inkscape:window-maximized="0"
     inkscape:current-layer="svg8" />
  <g
     transform="scale(8.11041548093341) translate(10, 10)"
     id="g8">
    <defs
       id="SvgjsDefs3647" />
    <g
       id="SvgjsG3648"
       featureKey="PG4fjM-0"
       transform="matrix(1.1409898453018017,0,0,1.1409898453018017,-10.996860686142712,-3.7047940037560303)"
       fill="#4ca6e6">
      <g
         id="g7">
        <g
           id="g1">
          <polygon
             points="36.703,11.011 9.638,26.636 9.638,38.757 36.703,23.131 63.767,38.757 63.767,26.636   "
             id="polygon1" />
        </g>
        <g
           id="g2">
          <polygon
             points="63.298,89.092 36.233,73.467 36.233,61.348 63.298,76.973 90.362,61.348 90.362,73.467   "
             id="polygon2" />
        </g>
        <g
           id="g3">
          <polygon
             points="9.638,42.012 36.703,26.386 47.198,32.446 20.134,48.072 20.134,79.324 9.638,73.264   "
             id="polygon3" />
        </g>
        <g
           id="g4">
          <polygon
             points="77.083,18.872 50.018,3.247 39.522,9.307 66.586,24.932 66.586,56.184 77.083,50.124   "
             id="polygon4" />
        </g>
        <g
           id="g5">
          <polygon
             points="23.01,81.127 23.011,49.876 33.507,43.816 33.507,75.068 60.571,90.693 50.075,96.754   "
             id="polygon5" />
        </g>
        <g
           id="g6">
          <polygon
             points="90.362,58.092 90.362,26.84 79.866,20.78 79.866,52.031 52.802,67.658 63.298,73.719   "
             id="polygon6" />
        </g>
      </g>
    </g>
    <g
       id="SvgjsG3649"
       featureKey="jxYttZ-0"
       transform="matrix(3.500781080949054,0,0,3.500781080949054,105.69859255191945,9.496094595254728)"
       fill="#222831">
      <path
         d="M11.76 6.84 l-7.74 0 l0 4.68 l6.34 0 l0 1.84 l-6.34 0 l0 6.64 l-2.22 0 l0 -15 l9.96 0 l0 1.84 z M23.28 15.08 l0 0.74 l-7.78 0 c0 1.82 1.74 2.7 3.02 2.7 c0.94 0 1.98 -0.5 2.54 -1.3 l1.42 1.28 c-0.66 0.9 -1.74 1.7 -3.96 1.7 c-3.2 0 -5.16 -2.18 -5.16 -5.12 s1.9 -5.14 4.96 -5.14 s4.46 1.7 4.88 4.18 c0.06 0.32 0.08 0.64 0.08 0.96 z M15.54 14.120000000000001 l5.58 0 c0 -1.6 -1.28 -2.48 -2.8 -2.48 s-2.78 1.02 -2.78 2.48 z M37.18 10.12 l2.06 0 l-3.76 9.88 l-1.26 0 l-2.46 -6.4 l-2.44 6.4 l-1.26 0 l-3.78 -9.88 l2.08 0 l2.34 6.9 l2.06 -6.08 l0.26 -0.82 l1.48 0 l0.28 0.82 l2.06 6.08 z M47.58 16.16 c0.04 0.12 0.38 1.1 -0.04 2.1 c-0.52 1.18 -1.9 1.94 -3.62 1.94 l-0.02 0 c-1.38 0 -2.64 -0.58 -3.58 -1.5 l1.34 -1.34 c0.56 0.72 1.36 1.08 2.24 1.08 c0.98 0 1.8 -0.36 2.02 -0.88 c0.14 -0.36 0.02 -0.74 0.02 -0.78 c-0.24 -0.6 -1.12 -0.72 -2.12 -0.94 c-1.34 -0.3 -2.68 -0.64 -3.2 -2.04 c-0.26 -0.72 -0.18 -1.56 0.18 -2.26 c0.82 -1.54 2.86 -1.6 3.1 -1.6 c1.38 0 2.68 0.52 3.6 1.46 l-1.34 1.34 c-0.56 -0.72 -1.38 -1.04 -2.26 -1.04 c-0.02 0 -1.2 0.02 -1.54 0.68 c-0.12 0.2 -0.18 0.54 -0.08 0.82 c0.2 0.56 1.1 0.74 2.06 0.96 c1.3 0.3 2.72 0.6 3.24 2 z M54.26 9.92 c2.84 0 3.98 1.72 3.98 3.18 l0 6.9 l-2.06 0 l0 -1.08 c-0.72 0.98 -2 1.26 -2.8 1.26 c-2.26 0 -3.74 -1.32 -3.74 -3.08 c0 -2.46 1.84 -3.34 3.74 -3.34 l2.8 0 l0 -0.66 c0 -0.62 -0.24 -1.48 -1.92 -1.48 c-0.94 0 -1.8 0.5 -2.36 1.28 l-1.42 -1.28 c0.94 -1.04 2.28 -1.7 3.78 -1.7 z M56.17999999999999 16.92 l0 -1.48 l-2.52 0 c-1.22 0 -2.08 0.62 -1.94 1.74 c0.12 0.94 0.88 1.32 1.94 1.32 c1.9 0 2.52 -0.9 2.52 -1.58 z M64.52 18.36 c0.64 0.26 1.14 0.08 1.44 -0.06 l0 1.6 c-0.26 0.16 -0.64 0.3 -1.18 0.3 c-1.18 0 -2.22 -0.38 -2.86 -1.42 c-0.6 -1 -0.6 -1.54 -0.6 -3.1 l0 -3.88 l-1.2 0 l0 -1.68 l1.2 0 l0 -3.12 l2.06 0 l0 3.12 l2.58 0 l0 1.68 l-2.58 0 l0 3.88 c0 1.64 0.16 2.24 1.14 2.68 z M75.3 16.16 c0.04 0.12 0.38 1.1 -0.04 2.1 c-0.52 1.18 -1.9 1.94 -3.62 1.94 l-0.02 0 c-1.38 0 -2.64 -0.58 -3.58 -1.5 l1.34 -1.34 c0.56 0.72 1.36 1.08 2.24 1.08 c0.98 0 1.8 -0.36 2.02 -0.88 c0.14 -0.36 0.02 -0.74 0.02 -0.78 c-0.24 -0.6 -1.12 -0.72 -2.12 -0.94 c-1.34 -0.3 -2.68 -0.64 -3.2 -2.04 c-0.26 -0.72 -0.18 -1.56 0.18 -2.26 c0.82 -1.54 2.86 -1.6 3.1 -1.6 c1.38 0 2.68 0.52 3.6 1.46 l-1.34 1.34 c-0.56 -0.72 -1.38 -1.04 -2.26 -1.04 c-0.02 0 -1.2 0.02 -1.54 0.68 c-0.12 0.2 -0.18 0.54 -0.08 0.82 c0.2 0.56 1.1 0.74 2.06 0.96 c1.3 0.3 2.72 0.6 3.24 2 z"
         id="path7" />
    </g>
  </g>
  <path
     style="fill:#4ca6e6;fill-opacity:1;stroke-width:3.59342"
     d="M 989.98679,512.06213 V 300.05044 h 140.14331 140.1433 v 25.15393 25.15393 h -109.5992 -109.5993 v 68.27495 68.27495 h 89.8355 89.8354 v 25.15393 25.15393 h -89.8354 -89.8355 v 93.42888 93.42888 h -30.5441 -30.54401 z"
     id="path8" />
  <path
     style="fill:#4ca6e6;fill-opacity:1;stroke-width:3.59342"
     d="m 1435.5707,727.21543 c -46.3781,-7.52107 -88.3074,-40.11345 -104.8121,-81.47227 -6.7687,-16.96137 -8.1761,-27.29285 -8.1761,-60.01595 0,-48.55946 7.7198,-71.25023 34.0376,-100.04608 25.3654,-27.75383 52.7471,-39.55484 95.7364,-41.26069 86.7277,-3.44141 137.7999,43.8045 144.0106,133.22158 l 1.9344,27.84899 H 1488.1887 1378.076 v 10.92341 c 0,34.87002 40.5275,68.1318 83.0146,68.1318 25.6627,0 43.8888,-6.18873 60.7627,-20.63216 l 14.3597,-12.29142 13.8077,10.93588 c 23.8929,18.92353 24.6124,20.76867 12.8753,33.01954 -14.1996,14.82115 -41.9795,27.52424 -69.8306,31.93187 -26.4138,4.18016 -30.0158,4.16171 -57.4947,-0.2945 z m 104.2091,-174.86429 c 0,-15.14168 -14.6488,-41.01655 -28.3917,-50.14955 -50.9741,-33.87538 -125.092,-8.17196 -132.344,45.8957 l -1.9144,14.2727 h 81.3251 81.325 z"
     id="path9" />
  <path
     style="fill:#4ca6e6;fill-opacity:1;stroke-width:3.59342"
     d="m 1733.7466,715.98863 c -1.9345,-4.44686 -25.9382,-66.70283 -53.3417,-138.34661 l -49.8246,-130.26142 27.3665,0.0377 27.3665,0.0377 32.4865,95.44503 c 17.8675,52.49478 34.0379,95.32933 35.9342,95.18791 1.8962,-0.14143 17.7568,-43.18458 35.2457,-95.65144 l 31.7981,-95.39431 20.0226,1.06707 20.0226,1.06707 32.0257,96.12394 c 17.6142,52.86817 33.1038,96.11428 34.4214,96.10246 1.3176,-0.0118 17.142,-43.2676 35.1654,-96.12395 l 32.7697,-96.10245 27.5322,-1.05153 27.5323,-1.05153 -4.914,11.83178 c -2.7026,6.50749 -26.5316,68.83239 -52.9531,138.49979 l -48.0392,126.668 h -16.5389 -16.539 l -33.9309,-88.39755 c -18.662,-48.61865 -35.548,-88.09902 -37.5243,-87.73416 -1.9764,0.36486 -12.9174,25.18615 -24.3132,55.15843 -11.3959,29.97227 -26.479,69.45264 -33.5181,87.73416 l -12.7983,33.23912 h -15.9685 c -13.1221,0 -16.5954,-1.44115 -19.4856,-8.08519 z"
     id="path10" />
  <path
     style="fill:#4ca6e6;fill-opacity:1;stroke-width:3.59342"
     d="m 2157.8478,726.36905 c -21.744,-4.95016 -46.8616,-16.8626 -61.6956,-29.26018 l -9.591,-8.01572 17.4663,-17.20367 17.4663,-17.20368 12.5608,11.02848 c 17.2785,15.17079 44.3443,21.043 71.2474,15.45793 26.784,-5.56033 38.7878,-16.65252 38.7878,-35.84203 0,-21.00074 -8.6975,-27.12294 -53.4765,-37.64231 -20.9856,-4.92987 -44.0243,-11.42366 -51.1972,-14.43064 -69.3718,-29.08196 -64.5028,-120.11414 7.7074,-144.09852 38.1828,-12.68229 90.8933,-3.36565 124.0531,21.92653 l 12.8328,9.78806 -16.9051,17.16312 -16.905,17.16311 -11.1559,-8.50898 c -16.113,-12.29003 -29.6329,-16.55778 -52.8045,-16.66861 -33.5306,-0.16037 -51.6288,13.47633 -49.2686,37.12297 1.6087,16.11645 13.9208,23.43859 58.8747,35.01342 21.5937,5.55998 43.5285,11.81641 48.744,13.90319 14.4127,5.76668 35.9201,26.11941 41.3604,39.13984 7.3379,17.56207 6.0832,46.57139 -2.8088,64.93981 -17.4497,36.04623 -75.6662,57.5257 -125.2928,46.22788 z"
     id="path11" />
  <path
     style="fill:#4ca6e6;fill-opacity:1;stroke-width:3.59342"
     d="m 2411.9121,722.48437 c -22.7269,-8.1069 -41.1213,-22.49228 -51.5796,-40.338 -19.057,-32.51827 -9.7452,-85.89134 18.7811,-107.64943 24.405,-18.61458 43.5528,-22.90721 102.1804,-22.90721 h 53.8627 l -0.053,-17.06873 c -0.069,-22.08623 -6.0431,-33.53747 -21.5576,-41.31873 -26.0391,-13.0599 -65.5754,-5.88545 -92.4123,16.76959 l -11.6104,9.80122 -17.137,-16.5262 -17.1369,-16.52621 12.577,-10.83559 c 62.6757,-53.99783 169.076,-40.78731 196.3858,24.38302 3.6948,8.81693 4.8456,36.76713 4.8456,117.68446 v 106.12126 h -26.9506 -26.9507 v -14.37367 c 0,-16.24137 -3.0222,-17.80356 -12.9184,-6.67753 -3.7649,4.23289 -14.9306,11.49376 -24.8125,16.13528 -20.966,9.84776 -62.6826,11.47052 -85.5137,3.32647 z m 84.8069,-41.7734 c 7.5168,-2.08734 18.8361,-8.41381 25.1539,-14.05883 10.973,-9.80431 11.5438,-11.64381 12.7542,-41.10252 l 1.2671,-30.83886 -42.5914,0.02 c -50.5098,0.0238 -65.9301,3.63349 -78.2946,18.32789 -10.3433,12.29229 -12.3873,34.38177 -4.6198,49.92702 9.5633,19.13937 50.7706,27.59998 86.3306,17.72526 z"
     id="path12" />
  <path
     style="fill:#4ca6e6;fill-opacity:1;stroke-width:3.59342"
     d="m 2755.5281,727.61621 c -20.0353,-4.10645 -33.0062,-11.26048 -46.5866,-25.69467 -23.9376,-25.44236 -24.5442,-28.36575 -25.7876,-124.27952 l -1.1297,-87.1404 h -17.7358 -17.7357 V 468.94111 447.3806 h 17.9671 17.9671 v -44.91773 -44.91773 h 26.9506 26.9507 v 44.91773 44.91773 h 35.9341 35.9342 v 21.56051 21.56051 h -36.1812 -36.1812 l 1.1454,80.12347 c 1,69.95302 1.9684,81.37803 7.6291,90.00701 10.6146,16.18052 27.0497,24.36511 46.5214,23.16743 l 17.071,-1.05002 v 20.42 c 0,16.3471 -1.2565,20.78846 -6.2907,22.26726 -14.3753,4.2228 -32.3539,5.06654 -46.44,2.17944 z"
     id="path13" />
  <path
     style="fill:#4ca6e6;fill-opacity:1;stroke-width:3.59342"
     d="m 2944.8064,726.36905 c -21.744,-4.95016 -46.8615,-16.8626 -61.6955,-29.26018 l -9.5911,-8.01572 17.4664,-17.20367 17.4663,-17.20368 12.5607,11.02848 c 17.2786,15.17079 44.3443,21.043 71.2475,15.45793 26.7839,-5.56033 38.7878,-16.65252 38.7878,-35.84203 0,-21.00074 -8.6975,-27.12294 -53.4766,-37.64231 -20.9856,-4.92987 -44.0243,-11.42366 -51.1971,-14.43064 -69.3719,-29.08196 -64.5028,-120.11414 7.7074,-144.09852 38.1828,-12.68229 90.8932,-3.36565 124.053,21.92653 l 12.8328,9.78806 -16.905,17.16312 -16.9051,17.16311 -11.1558,-8.50898 c -16.1131,-12.29003 -29.6329,-16.55778 -52.8046,-16.66861 -33.5305,-0.16037 -51.6288,13.47633 -49.2685,37.12297 1.6124,16.15473 13.9872,23.47938 58.8747,34.84815 44.8381,11.35624 61.8535,18.5989 75.5452,32.15602 29.9457,29.65142 24.8102,86.81112 -10.0696,112.07794 -26.9681,19.53552 -69.6453,27.84309 -103.4729,20.14203 z"
     id="path14" />
</svg>
